<?xml version="1.0" encoding="utf-8"?>
<!-- Generator: Adobe Illustrator 22.1.0, SVG Export Plug-In . SVG Version: 6.00 Build 0)  -->
<svg version="1.1" id="Layer_1" xmlns="http://www.w3.org/2000/svg" xmlns:xlink="http://www.w3.org/1999/xlink" x="0px" y="0px"
	 viewBox="0 0 43.5 43.2" style="enable-background:new 0 0 43.5 43.2;" xml:space="preserve">
<style type="text/css">
	.st0{clip-path:url(#SVGID_2_);fill:#FFFFFF;}
</style>
<g>
	<defs>
		<rect id="SVGID_1_" x="0" y="0" width="43.5" height="43.2"/>
	</defs>
	<clipPath id="SVGID_2_">
		<use xlink:href="#SVGID_1_"  style="overflow:visible;"/>
	</clipPath>
	<path class="st0" d="M22,24.3L22,24.3c-1.3,2-2.6,4.1-3.8,6.2c0,0-0.9-3.2-1.3-7.7c-2.1-0.7-4.3-1.5-6.4-2.5c0,0,2.4-1.2,6.4-2.8
		c0.1-2.4,0.4-4.9,1.1-7.4c0,0,1.3,2.4,3.6,5.7c2.5-0.8,5.2-1.6,8.1-2.2c0,0-2.2,2.7-4.9,6.6c1.6,2,3.4,4.1,5.4,6.1
		C30.2,26.2,26.7,25.6,22,24.3 M43.5,23.1c-0.6,1-1.6,1.7-2.8,2.2c-0.2-3.2-0.7-6.1-0.7-6.1c-1,2.7-2,5-3,7
		c-3.5,0.4-6.9-0.1-6.9-0.1c1.9,2.2,3.3,3.6,4.5,4.5c-1.8,3-3,4.5-3,4.5c2.4-0.6,4.4-1.5,5.9-2.6c0.6,0.4,1.2,0.9,1.7,1.7
		c0,0,1-1.4,1.3-4.7C43.1,26.4,43.5,23.1,43.5,23.1 M42.4,14.1c-1.1-2.5-2.7-4.4-4.4-5.8c-1.5-3.1-3.2-4.5-3.2-4.5
		c0.1,0.7,0,1.5-0.2,2.4c-3.7-1.8-7-2.1-7-2.1c2.1,1.4,4,3.1,5.7,4.9c-1.5,2.4-3.5,4.5-3.5,4.5c2.6-0.6,4.7-0.8,6.4-0.9
		c2.6,3.6,4,6.6,4,6.6c0.1-2.4-0.2-4.5-0.6-6.3C41.7,13.3,42.4,14.1,42.4,14.1 M27.5,4.1c-1.8-0.9-3.5-1.5-5.1-2
		c2-1.7,3.9-2.1,3.9-2.1c-3.2-0.1-6,0.5-8.4,1.4c-3.5-0.3-5.7,0.3-5.7,0.3c0.5,0.4,1,1.1,1.4,1.9c-2.9,2-4.4,4.1-4.4,4.1
		c1.8-0.9,3.7-1.6,5.5-2.1c0.2,0.4,0.4,0.7,0.7,1.1c1.2,1.9,2.6,3.3,2.6,3.3c0.5-2.3,1.3-4.1,2.3-5.5C24.4,4,27.5,4.1,27.5,4.1
		 M5.1,11.2C6.2,10.1,7.5,9,9.2,7.8c0,0-1.5,0-3.1,0.4c1.1-2.6,2.2-4,2.2-4S1.6,9,0.3,17.6c0,0,0.6-1.6,2.5-3.9
		c0.8,1.7,1.6,2.8,1.6,2.8C4.4,14.5,4.7,12.7,5.1,11.2 M10.5,20.2c-2.3,0.1-4.2,0.3-5.6,0.5c-0.4-2.5-0.5-4.3-0.5-4.3
		c-1.2,1.8-1.9,3.5-2.4,5c-1.6,0.6-2,1.2-2,1.2c0.3,0.9,0.8,1.7,1.4,2.5c-0.2,3.8,1,6.2,1,6.2c0.3-1.3,0.8-2.6,1.5-3.8
		c2,1.6,4,2.6,4,2.6C7,28.6,6.3,26.8,5.8,25C8,22.1,10.5,20.2,10.5,20.2 M22,39.4c0,0-2-0.8-4.8-2.4c0.1-1.7,0.4-3.8,0.9-6.6
		c0,0-2.2,2.2-5.1,3.9c-1.7-1.2-3.4-2.5-5.2-4.1c0,0,0.8,2.6,2.4,5.4c-1.5,0.6-3.1,0.8-4.5,0.5c0,0,1.7,2.1,6.9,3
		c1.5,1.7,3.2,3.1,5.3,3.6c0,0-0.6-0.7-0.8-3.2C18.7,39.6,20.3,39.6,22,39.4 M31.5,39.2c0.5-2.1,0.1-4,0.1-4
		c-1.3,1.9-2.6,3.4-3.8,4.5c-3.2,0.2-5.8-0.2-5.8-0.2s1.4,1.4,3.1,2.3c-2.2,1.4-3.7,1.5-3.7,1.5c9.6,0.2,15.4-6.1,15.4-6.1
		C35.3,38.1,33.4,38.8,31.5,39.2"/>
</g>
<g>
</g>
<g>
</g>
<g>
</g>
<g>
</g>
<g>
</g>
<g>
</g>
</svg>
