<?xml version="1.0" encoding="utf-8"?>
<!-- Generator: Adobe Illustrator 22.1.0, SVG Export Plug-In . SVG Version: 6.00 Build 0)  -->
<svg version="1.1" id="Layer_1" xmlns="http://www.w3.org/2000/svg" xmlns:xlink="http://www.w3.org/1999/xlink" x="0px" y="0px"
	 viewBox="0 0 948 533.4" style="enable-background:new 0 0 948 533.4;" xml:space="preserve">
<style type="text/css">
	.st0{display:none;fill:#0D3AFF;}
	.st1{display:none;}
	.st2{display:inline;}
	.st3{clip-path:url(#SVGID_1_);fill:#FFFFFF;}
	.st4{display:inline;clip-path:url(#SVGID_1_);fill:#FFFFFF;}
	.st5{display:none;fill:#FFFFFF;}
	.st6{display:inline;clip-path:url(#SVGID_2_);fill:#FFFFFF;}
	.st7{display:inline;clip-path:url(#SVGID_3_);fill:#FFFFFF;}
	.st8{display:inline;clip-path:url(#SVGID_4_);fill:#FFFFFF;}
	.st9{display:inline;clip-path:url(#SVGID_5_);fill:#FFFFFF;}
	.st10{display:inline;clip-path:url(#SVGID_6_);fill:#FFFFFF;}
	.st11{display:inline;clip-path:url(#SVGID_7_);fill:#FFFFFF;}
	.st12{display:inline;clip-path:url(#SVGID_8_);fill:#FFFFFF;}
	.st13{display:none;fill:#5AF7DC;}
	.st14{display:inline;clip-path:url(#SVGID_9_);fill:#5AF7DC;}
	.st15{display:inline;clip-path:url(#SVGID_10_);fill:#5AF7DC;}
	.st16{display:inline;clip-path:url(#SVGID_11_);fill:#5AF7DC;}
	.st17{display:inline;clip-path:url(#SVGID_12_);fill:#5AF7DC;}
	.st18{clip-path:url(#SVGID_13_);fill:#DEDEDE;}
</style>
<rect x="-210" y="-109" class="st0" width="1202" height="707"/>
<g class="st1">
	<defs>
		<rect id="SVGID_27_" width="948" height="533.4"/>
	</defs>
	<clipPath id="SVGID_1_" class="st2">
		<use xlink:href="#SVGID_27_"  style="overflow:visible;"/>
	</clipPath>
	<path class="st3" d="M686.9,116.1L686.9,116.1c-1.3,2-2.6,4-3.8,6.1c0,0-0.9-3.1-1.3-7.7c-2.1-0.7-4.4-1.5-6.5-2.5
		c0,0,2.5-1.2,6.4-2.7c0.1-2.4,0.4-4.9,1.1-7.4c0,0,1.3,2.3,3.7,5.7c2.5-0.8,5.3-1.6,8.2-2.2c0,0-2.2,2.7-5,6.5c1.6,2,3.4,4,5.5,6
		C695.2,118,691.6,117.4,686.9,116.1 M708.6,114.9c-0.7,1-1.6,1.7-2.8,2.2c-0.2-3.2-0.7-6-0.7-6c-1,2.6-2,5-3.1,7
		c-3.5,0.4-6.9-0.1-6.9-0.1c1.9,2.2,3.3,3.5,4.5,4.4c-1.8,2.9-3.1,4.5-3.1,4.5c2.5-0.6,4.4-1.5,6-2.6c0.6,0.4,1.2,0.9,1.7,1.7
		c0,0,1-1.4,1.4-4.7C708.3,118.2,708.6,114.9,708.6,114.9 M707.5,106.1c-1.1-2.5-2.7-4.3-4.5-5.7c-1.5-3.1-3.2-4.5-3.2-4.5
		c0.1,0.7,0,1.5-0.2,2.3c-3.7-1.8-7.1-2.1-7.1-2.1c2.2,1.4,4.1,3.1,5.7,4.9c-1.5,2.4-3.5,4.5-3.5,4.5c2.6-0.6,4.8-0.8,6.5-0.9
		c2.6,3.5,4,6.5,4,6.5c0.1-2.4-0.2-4.5-0.6-6.3C706.8,105.3,707.5,106.1,707.5,106.1 M692.5,96.1c-1.8-0.9-3.5-1.5-5.1-1.9
		c2-1.7,3.9-2.1,3.9-2.1c-3.3-0.1-6.1,0.5-8.5,1.3c-3.5-0.3-5.8,0.3-5.8,0.3c0.5,0.4,1,1.1,1.4,1.9c-3,2-4.5,4.1-4.5,4.1
		c1.8-0.9,3.7-1.5,5.6-2c0.2,0.4,0.4,0.7,0.7,1.1c1.2,1.9,2.6,3.2,2.6,3.2c0.5-2.3,1.3-4.1,2.3-5.4C689.3,96,692.5,96.1,692.5,96.1
		 M669.8,103.1c1.1-1.1,2.5-2.2,4.2-3.4c0,0-1.5,0-3.1,0.4c1.1-2.5,2.3-4,2.3-4s-6.8,4.8-8.1,13.3c0,0,0.6-1.5,2.5-3.9
		c0.8,1.7,1.7,2.8,1.7,2.8C669.2,106.4,669.4,104.7,669.8,103.1 M675.3,112.1c-2.4,0.1-4.2,0.3-5.7,0.5c-0.4-2.5-0.5-4.3-0.5-4.3
		c-1.2,1.7-1.9,3.4-2.4,5c-1.6,0.6-2.1,1.2-2.1,1.2c0.3,0.9,0.8,1.7,1.4,2.5c-0.2,3.7,1,6.2,1,6.2c0.3-1.3,0.8-2.6,1.5-3.8
		c2,1.6,4,2.6,4,2.6c-0.9-1.7-1.6-3.5-2.1-5.3C672.8,114,675.3,112.1,675.3,112.1 M687,131.1c0,0-2-0.8-4.8-2.3
		c0.1-1.7,0.4-3.8,0.9-6.5c0,0-2.3,2.2-5.2,3.9c-1.7-1.1-3.5-2.5-5.2-4.1c0,0,0.8,2.6,2.5,5.4c-1.5,0.6-3.1,0.8-4.6,0.5
		c0,0,1.7,2.1,7,3c1.5,1.7,3.3,3.1,5.3,3.6c0,0-0.6-0.7-0.8-3.2C683.6,131.4,685.2,131.3,687,131.1 M696.6,130.9
		c0.5-2.1,0.1-4,0.1-4c-1.3,1.9-2.7,3.3-3.9,4.4c-3.3,0.2-5.8-0.2-5.8-0.2s1.5,1.4,3.1,2.3c-2.2,1.4-3.7,1.5-3.7,1.5
		c9.7,0.2,15.6-6,15.6-6C700.3,129.9,698.4,130.5,696.6,130.9 M707.8,167.2L707.8,167.2c2.6,0,4.9-1.8,4.9-4.9
		c0-2.6-1.8-4.9-4.8-4.9c-2.7,0-4.8,2-4.8,4.7C703.2,164.8,704.9,167.2,707.8,167.2 M707.7,158.9L707.7,158.9c2.2,0,2.9,2.4,2.9,4.1
		c0,1.6-0.9,2.9-2.4,2.9c-2.1,0-2.9-2.5-2.9-4.1C705.3,160.6,705.9,158.9,707.7,158.9 M690,165.9L690,165.9V159l0.9-0.1
		c1.3,0,2.1,0.5,2.1,1.8c0,1.2-0.6,2-2.1,2c-0.2,0-0.4,0-0.5,0c-0.1,0-0.2,0-0.2,0.1c0,0.3,1.1,0.7,1.8,0.7c1.9,0,3.3-1.1,3.3-2.9
		c0-1.7-1-2.9-3.7-2.9h-4.3v0.4c0.5,0,0.7,0.2,0.7,0.6v7c0,0.7-0.1,0.9-0.7,1v0.4c0.6,0,1.2-0.1,1.8-0.1c0.5,0,1.1,0,2,0.1v-0.4
		C690.1,166.6,690,166.4,690,165.9 M698,158.6L698,158.6v7.5c0,0.4-0.2,0.6-0.7,0.6v0.4c0.6,0,1.2-0.1,1.8-0.1c0.5,0,1.1,0,1.8,0.1
		v-0.4c-0.5,0-0.7-0.2-0.7-0.6v-7.5c0-0.4,0.2-0.6,0.7-0.6v-0.4c-0.6,0-1.2,0.1-1.8,0.1c-0.5,0-1.1,0-1.8-0.1v0.4
		C697.8,158,698,158.2,698,158.6 M715.6,158.6L715.6,158.6v7.5c0,0.4-0.2,0.6-0.7,0.6v0.4c0.5,0,1-0.1,1.4-0.1c0.5,0,0.9,0,1.4,0.1
		v-0.4c-0.4,0-0.9-0.1-0.9-0.8v-6.2h0l4.9,7.4h1.6v-8.5c0-0.4,0.2-0.6,0.7-0.6v-0.4c-0.5,0-0.9,0.1-1.4,0.1c-0.5,0-0.9,0-1.4-0.1
		v0.4c0.4,0,0.9,0.1,0.9,0.8v5.2h0l-4-6.4c-0.5,0.1-0.9,0.1-1.3,0.1c-0.5,0-1.1,0-1.8-0.1v0.4C715.5,158,715.6,158.2,715.6,158.6
		 M727,163.8L727,163.8h-0.4c0.1,0.9,0.1,1.9,0.1,3c1,0.4,2.2,0.5,3.3,0.5c2.5,0,4.5-1,4.5-3c0-1.9-1.4-2.5-2.9-2.9l-1.6-0.4
		c-0.6-0.2-1.3-0.4-1.3-1.2c0-1,1.3-1.3,2-1.3c1.4,0,2.5,0.6,2.8,2h0.4c-0.1-0.8-0.1-1.7-0.1-2.7c-0.9-0.3-1.9-0.5-2.8-0.5
		c-2.2,0-4.5,0.7-4.5,3c0,1.7,1.5,2.4,3.1,2.8l1.1,0.3c0.7,0.2,1.6,0.4,1.6,1.3c0,1.1-1.3,1.4-2.2,1.4
		C728.4,166.2,727.3,165.4,727,163.8 M651,158.6L651,158.6v7.5c0,0.4-0.2,0.6-0.7,0.6v0.4c0.6,0,1.2-0.1,1.8-0.1
		c0.5,0,1.1,0,1.8,0.1v-0.4c-0.5,0-0.7-0.2-0.7-0.6v-3.3h3.5v3.3c0,0.4-0.2,0.6-0.7,0.6v0.4c0.6,0,1.2-0.1,1.8-0.1
		c0.5,0,1.1,0,1.8,0.1v-0.4c-0.5,0-0.7-0.2-0.7-0.6v-7.5c0-0.4,0.2-0.6,0.7-0.6v-0.4c-0.6,0-1.2,0.1-1.8,0.1c-0.5,0-1.1,0-1.8-0.1
		v0.4c0.5,0,0.7,0.2,0.7,0.6v2.8h-3.5v-2.8c0-0.4,0.2-0.6,0.7-0.6v-0.4c-0.6,0-1.2,0.1-1.8,0.1c-0.5,0-1.1,0-1.8-0.1v0.4
		C650.8,158,651,158.2,651,158.6 M664.9,163L664.9,163h2.1c-0.3-0.9-0.6-1.9-0.8-3.3h0C665.8,160.8,665.3,161.9,664.9,163
		 M661.4,167.1L661.4,167.1v-0.4c0.4-0.1,0.6-0.3,0.8-0.7l2.9-7.1c0.1-0.2,0.2-0.4,0.2-0.6c0-0.1-0.2-0.4-0.6-0.4v-0.4
		c0.5,0,0.9,0.1,1.4,0.1s0.9,0,1.4-0.1l2.7,8.2c0.2,0.6,0.4,0.8,0.9,0.9v0.4c-0.6,0-1.2-0.1-1.9-0.1c-0.6,0-1.3,0-1.9,0.1v-0.4
		c0.5-0.1,0.7-0.2,0.7-0.5c0-0.2-0.1-0.5-0.1-0.7l-0.5-1.4h-2.9l-0.6,1.7c-0.1,0.2-0.1,0.4-0.1,0.5c0,0.3,0.2,0.4,0.7,0.5v0.4
		c-0.5,0-1-0.1-1.5-0.1C662.4,167,661.9,167,661.4,167.1 M673.9,159.9L673.9,159.9l-0.3,6c0,0.6-0.3,0.7-0.8,0.8v0.4
		c0.5,0,1-0.1,1.5-0.1c0.6,0,1.1,0,1.7,0.1v-0.4c-0.9-0.1-1-0.3-1-1c0-0.4,0-0.8,0-1.5l0.1-4.2h0l2.8,7.1h1.2l2.4-7.1h0l0.3,4.3
		c0,0.5,0.1,1.1,0.1,1.5c0,0.7-0.2,0.8-0.9,0.9v0.4c0.6,0,1.2-0.1,1.9-0.1c0.6,0,1.3,0,1.9,0.1v-0.4c-0.3,0-0.7-0.1-0.7-0.5
		l-0.5-6.1c0-0.5-0.1-1.1-0.1-1.5c0-0.4,0.1-0.5,0.6-0.6v-0.4c-0.5,0-1,0.1-1.5,0.1c-0.5,0-1,0-1.5-0.1l-2.3,6.7l-2.6-6.7
		c-0.5,0-1.1,0.1-1.6,0.1c-0.5,0-1.1,0-1.5-0.1v0.4c0.6,0.1,0.7,0.1,0.7,0.6C674,159.1,673.9,159.5,673.9,159.9 M648.1,166.5
		L648.1,166.5l0.2-1.8c-0.9,0.7-2.2,1.2-3.1,1.2c-2.1,0-3.7-2-3.7-3.9c0-2.4,1.4-3.8,3.3-3.8c1.4,0,2.3,0.7,2.6,2h0.4
		c-0.1-1-0.1-2.1-0.1-3.2c-0.4-0.1-1.3-0.4-2.6-0.4c-3.8,0-5.8,2.7-5.8,5.5c0,2.7,2,5.4,5.5,5.4
		C645.6,167.6,647.1,167.3,648.1,166.5 M663.9,172.3L663.9,172.3v5.8c0,0.3-0.1,0.5-0.5,0.5v0.3h5.6c0-0.7,0.1-1.4,0.3-2.2h-0.4
		c-0.2,0.8-0.5,1.2-1.2,1.2h-2.1v-5.4c0-0.3,0.1-0.6,0.7-0.6v-0.3c-0.3,0-1,0.1-1.5,0.1c-0.4,0-0.9,0-1.4-0.1v0.3
		C663.8,171.8,663.9,172,663.9,172.3 M671.1,172.3L671.1,172.3v5.7c0,0.3-0.1,0.5-0.5,0.5v0.3h6c0-0.6,0-1.2,0.1-2.1h-0.4
		c-0.2,0.9-0.4,1.1-1,1.1h-2.5v-2.3h1.5c0.5,0,0.6,0.2,0.7,0.6h0.3c0-0.3-0.1-0.8-0.1-1.1c0-0.3,0-0.8,0.1-1.1h-0.3
		c-0.1,0.4-0.1,0.6-0.7,0.6h-1.5v-2.1h2.4c0.6,0,0.8,0.2,0.9,0.8h0.3c-0.1-0.6-0.1-1.1-0.1-1.7h-5.7v0.3
		C671,171.9,671.1,172,671.1,172.3 M678,178.5L678,178.5v0.3c0.4,0,0.8-0.1,1.2-0.1c0.4,0,0.8,0,1.2,0.1v-0.3
		c-0.4,0-0.5-0.2-0.5-0.4c0-0.1,0-0.2,0.1-0.4l0.5-1.3h2.2l0.4,1.1c0.1,0.1,0.1,0.4,0.1,0.6c0,0.3-0.1,0.3-0.6,0.4v0.3
		c0.5,0,1-0.1,1.5-0.1c0.5,0,1,0,1.4,0.1v-0.3c-0.3-0.1-0.5-0.2-0.7-0.7l-2.1-6.3c-0.3,0-0.7,0.1-1.1,0.1c-0.3,0-0.7,0-1.1-0.1v0.3
		c0.3,0,0.4,0.2,0.4,0.3c0,0.1-0.1,0.3-0.1,0.4l-2.2,5.5C678.5,178.3,678.4,178.5,678,178.5 M682.4,175.6L682.4,175.6h-1.6
		c0.3-0.8,0.7-1.7,0.9-2.5h0C681.9,174.2,682.1,174.9,682.4,175.6 M691.5,176.2L691.5,176.2v0.8c0,0.5-0.4,0.9-1.2,0.9
		c-1.3,0-2.1-1.6-2.1-2.9c0-1.4,0.8-2.6,2.3-2.6c0.9,0,1.9,0.5,2,1.5h0.3c0-0.8-0.1-1.4-0.1-1.9c-0.6-0.4-1.4-0.5-2.2-0.5
		c-2.4,0-4.1,1.5-4.1,3.9c0,2,1.4,3.7,3.5,3.7c0.8,0,1.5-0.2,2.2-0.9l0.3,0.7h0.7v-2.5c0-0.5,0.2-0.6,0.6-0.6v-0.3
		c-0.5,0-1,0.1-1.5,0.1c-0.5,0-0.9,0-1.4-0.1v0.4C691.3,175.8,691.5,175.8,691.5,176.2 M696,172.3L696,172.3v4.1
		c0,1.9,1.1,2.6,3.1,2.6c2,0,3.1-0.7,3.1-2.7v-4c0-0.3,0.1-0.5,0.5-0.5v-0.3c-0.4,0-0.8,0.1-1.3,0.1c-0.6,0-1.1,0-1.5-0.1v0.3
		c0.5,0,0.6,0.1,0.6,0.5v4.1c0,1.2-0.5,1.5-1.4,1.5c-0.9,0-1.4-0.2-1.4-1.5v-4.1c0-0.4,0.1-0.5,0.6-0.5v-0.3c-0.5,0-0.9,0.1-1.5,0.1
		c-0.5,0-0.9,0-1.3-0.1v0.3C695.8,171.8,696,172,696,172.3 M705.1,172.3L705.1,172.3v5.7c0,0.3-0.1,0.5-0.5,0.5v0.3h6
		c0-0.6,0-1.2,0.1-2.1h-0.4c-0.2,0.9-0.4,1.1-1,1.1h-2.5v-2.3h1.5c0.5,0,0.6,0.2,0.7,0.6h0.3c0-0.3-0.1-0.8-0.1-1.1s0-0.8,0.1-1.1
		h-0.3c-0.1,0.4-0.2,0.6-0.7,0.6h-1.5v-2.1h2.4c0.6,0,0.8,0.2,0.9,0.8h0.3c-0.1-0.6-0.1-1.1-0.1-1.7h-5.7v0.3
		C705,171.9,705.1,172,705.1,172.3 M689.5,149l-0.7-0.2c-0.3-0.1-0.4-0.3-0.3-0.5l1-3.7c0.3-1.3,1.3-1.5,2.3-1.2l2.2,0.6l-0.3,1.1
		l-2.2-0.6c-0.6-0.1-0.8-0.1-1,0.6l-0.1,0.6l2.7,0.7l-0.3,1.1l-2.7-0.7L689.5,149z M681.4,144.4l0.3,1.3l2.7-0.5l0.2,1.1l-2.7,0.5
		l0.1,0.6c0.1,0.6,0.4,0.7,1,0.6l2.2-0.4l0.2,1.1l-2.3,0.5c-1.1,0.2-2-0.1-2.3-1.4l-0.8-3.8c-0.1-0.3,0.1-0.5,0.4-0.5l3.7-0.7
		l0.2,1.1L681.4,144.4z M676.3,151c0.3-0.3,0.5-0.6,0.6-1c0-0.4-0.1-0.7-0.5-1.2l-2.1-2.5l0.9-0.7l2.3,2.8c0.5,0.6,0.7,1.2,0.6,1.8
		c-0.1,0.7-0.4,1.3-1.1,1.8c-0.6,0.5-1.3,0.7-2,0.7c-0.6-0.1-1.2-0.4-1.7-1l-2.3-2.8l0.9-0.7l2.1,2.5c0.4,0.5,0.7,0.7,1.1,0.7
		C675.6,151.4,676,151.2,676.3,151 M699.5,146.9c-0.3-0.2-0.5-0.1-0.7,0l-5.3,3.4l1.1,0.6l3.8-2.4l-0.6,2l-0.5-0.4l-1,0.6l1.2,0.9
		l-0.3,1.1l1,0.9l1.8-6c0.1-0.2,0.1-0.4-0.2-0.6L699.5,146.9z M686.4,151c4,0,7.6,1.7,10.1,4.5l0.7-0.6c-2.6-2.9-6.5-4.8-10.8-4.8
		c-4.3,0-8.1,1.9-10.8,4.8l0.7,0.6C678.8,152.7,682.4,151,686.4,151 M686.4,141.2c6.5,0,12.5,2.6,16.7,6.9l0.7-0.6
		c-4.4-4.4-10.6-7.2-17.4-7.2c-6.8,0-13,2.8-17.4,7.2l0.7,0.6C673.9,143.8,679.9,141.2,686.4,141.2"/>
	<path class="st4" d="M574.4,247.4c3.5,0,4.9-1.5,4.9-3.9c0-2.4-1.4-3.8-5-3.8h-3.5v7.7H574.4z M573.3,238.4c3.4,0,4.6-1.3,4.6-3.3
		c0-2-1.1-3.4-4.5-3.4h-2.6v6.7H573.3z M569,230.4h4.6c4.6,0,6.3,1.9,6.3,4.5c0,1.6-0.6,3.1-2.8,3.8v0.1c2.9,0.4,4.3,1.9,4.3,4.8
		c0,2.9-1.8,5.1-7,5.1H569V230.4z"/>
</g>
<path class="st5" d="M597.5,242.2l-3.4-9.1l-3.4,9.1H597.5z M593.4,230.7l1.3-0.5l7.1,18.5h-1.9l-2-5.3h-7.7l-1.9,5.3h-1.7
	L593.4,230.7z"/>
<polygon class="st5" points="612.5,241.6 606.7,230.4 608.8,230.4 613.6,240 618.3,230.4 619.9,230.4 614.3,241.6 614.3,248.7 
	612.5,248.7 "/>
<polygon class="st5" points="626.3,230.4 636,230.4 635.6,231.7 628.1,231.7 628.1,239.1 634.6,239.1 634.2,240.4 628.1,240.4 
	628.1,247.4 636.6,247.4 636.2,248.7 626.3,248.7 "/>
<g class="st1">
	<defs>
		<rect id="SVGID_29_" width="948" height="533.4"/>
	</defs>
	<clipPath id="SVGID_2_" class="st2">
		<use xlink:href="#SVGID_29_"  style="overflow:visible;"/>
	</clipPath>
	<path class="st6" d="M648.2,239.9c3.2,0,4.7-1,4.7-4c0-3-1.7-4.2-4.8-4.2h-2.9v8.2H648.2z M643.4,230.4h4.4c3.7,0,7.1,0.9,7.1,5.4
		c0,2.9-1.6,4.6-3.5,5.1l4.3,7.8h-2l-4-7.5c-0.4,0-1.4,0-1.9,0h-2.5v7.4h-1.8V230.4z"/>
</g>
<polygon class="st5" points="662.3,230.4 663.7,230.4 674.6,245.6 674.6,230.4 676.1,230.4 676.1,248.7 674.7,248.7 663.8,233.6 
	663.8,248.7 662.3,248.7 "/>
<polygon class="st5" points="692.9,230.4 694.5,230.4 701.1,243.1 707.2,230.4 708.9,230.4 709.9,248.7 708,248.7 707.3,233.4 
	707.2,233.4 701.3,245.6 700.4,245.6 694.1,233.4 694,233.4 693.6,248.7 692.1,248.7 "/>
<g class="st1">
	<defs>
		<rect id="SVGID_31_" width="948" height="533.4"/>
	</defs>
	<clipPath id="SVGID_3_" class="st2">
		<use xlink:href="#SVGID_31_"  style="overflow:visible;"/>
	</clipPath>
	<path class="st7" d="M717.7,241.9v-11.5h1.8v11.4c0,3.7,1.5,5.8,5.1,5.8c4.6,0,5.2-3.3,5.2-5.8v-11.4h1.5v11.7
		c0,3.9-1.7,6.9-6.9,6.9C719.1,249,717.7,245.8,717.7,241.9"/>
</g>
<polygon class="st5" points="739.2,230.4 740.5,230.4 751.5,245.6 751.5,230.4 752.9,230.4 752.9,248.7 751.6,248.7 740.6,233.6 
	740.6,248.7 739.2,248.7 "/>
<rect x="761.1" y="230.4" class="st5" width="1.8" height="18.2"/>
<g class="st1">
	<defs>
		<rect id="SVGID_33_" width="948" height="533.4"/>
	</defs>
	<clipPath id="SVGID_4_" class="st2">
		<use xlink:href="#SVGID_33_"  style="overflow:visible;"/>
	</clipPath>
	<path class="st8" d="M770,239.9c0-5.9,3.4-9.9,8.5-9.9c2.1,0,3.8,0.7,4.7,1.3l-0.3,1.3c-0.9-0.7-2.4-1.3-4.2-1.3
		c-4.1,0-6.6,3.3-6.6,8.4c0,4.5,2.1,7.9,6.6,7.9c2,0,3.5-0.6,4.6-1.3l0.3,1.3c-0.6,0.4-2.5,1.4-5.2,1.4
		C773.4,249,770,245.6,770,239.9"/>
</g>
<polygon class="st5" points="790.8,230.4 792.6,230.4 792.6,239.1 802.4,239.1 802.4,230.4 804.2,230.4 804.2,248.7 802.4,248.7 
	802.4,240.4 792.6,240.4 792.6,248.7 790.8,248.7 "/>
<g class="st1">
	<defs>
		<rect id="SVGID_35_" width="948" height="533.4"/>
	</defs>
	<clipPath id="SVGID_5_" class="st2">
		<use xlink:href="#SVGID_35_"  style="overflow:visible;"/>
	</clipPath>
	<path class="st9" d="M607.2,309.7c0-5.9,3.4-9.9,8.5-9.9c2.1,0,3.8,0.7,4.7,1.3l-0.3,1.3c-0.9-0.7-2.4-1.3-4.2-1.3
		c-4.1,0-6.6,3.3-6.6,8.4c0,4.5,2.1,7.9,6.6,7.9c2,0,3.5-0.6,4.6-1.3l0.3,1.3c-0.6,0.4-2.5,1.4-5.2,1.4
		C610.6,318.7,607.2,315.4,607.2,309.7"/>
</g>
<polygon class="st5" points="627.1,300.1 628.9,300.1 628.9,308.8 638.7,308.8 638.7,300.1 640.5,300.1 640.5,318.4 638.7,318.4 
	638.7,310.1 628.9,310.1 628.9,318.4 627.1,318.4 "/>
<polygon class="st5" points="647.7,300.1 657.4,300.1 657,301.4 649.5,301.4 649.5,308.8 656,308.8 655.6,310.1 649.5,310.1 
	649.5,317.1 657.9,317.1 657.5,318.4 647.7,318.4 "/>
<polygon class="st5" points="663.9,300.1 665.7,300.1 665.7,317.1 673.7,317.1 673.3,318.4 663.9,318.4 "/>
<g class="st1">
	<defs>
		<rect id="SVGID_37_" width="948" height="533.4"/>
	</defs>
	<clipPath id="SVGID_6_" class="st2">
		<use xlink:href="#SVGID_37_"  style="overflow:visible;"/>
	</clipPath>
	<path class="st10" d="M678.7,317.4l0.4-1.3c1.2,0.7,2.9,1.3,4.7,1.3c2.6,0,4.4-1.3,4.4-3.5c0-2-1.5-3.1-3.8-4.1l-1-0.5
		c-2.1-1-4.3-2.1-4.3-4.9c0-3.1,2.7-4.7,5.7-4.7c1.8,0,3.5,0.6,4.4,1.1l-0.4,1.3c-0.8-0.5-2.4-1.2-4.1-1.2c-2.4,0-3.8,1.3-3.8,3.2
		c0,1.8,1.4,2.7,3.5,3.6l1.2,0.6c2.5,1.2,4.4,2.4,4.4,5.3c0,3.3-2.6,5.1-6.1,5.1C681.4,318.7,679.6,318,678.7,317.4"/>
</g>
<polygon class="st5" points="696.1,300.1 705.8,300.1 705.4,301.4 697.9,301.4 697.9,308.8 704.4,308.8 704,310.1 697.9,310.1 
	697.9,317.1 706.4,317.1 706,318.4 696.1,318.4 "/>
<path class="st5" d="M721.6,311.9l-3.4-9.1l-3.4,9.1H721.6z M717.5,300.4l1.3-0.5l7.1,18.5H724l-2-5.3h-7.7l-1.9,5.3h-1.7
	L717.5,300.4z"/>
<polygon class="st5" points="738.7,300.1 748.5,300.1 748,301.4 740.5,301.4 740.5,308.8 747,308.8 746.6,310.1 740.5,310.1 
	740.5,318.4 738.7,318.4 "/>
<g class="st1">
	<defs>
		<rect id="SVGID_39_" width="948" height="533.4"/>
	</defs>
	<clipPath id="SVGID_7_" class="st2">
		<use xlink:href="#SVGID_39_"  style="overflow:visible;"/>
	</clipPath>
	<path class="st11" d="M752.8,309.7c0-5.9,3.4-9.9,8.5-9.9c2.1,0,3.8,0.7,4.7,1.3l-0.3,1.3c-0.9-0.7-2.4-1.3-4.2-1.3
		c-4.1,0-6.6,3.3-6.6,8.4c0,4.5,2.1,7.9,6.6,7.9c2,0,3.5-0.6,4.6-1.3l0.3,1.3c-0.6,0.4-2.5,1.4-5.2,1.4
		C756.3,318.7,752.8,315.4,752.8,309.7"/>
</g>
<polygon class="st5" points="675.7,266.4 677.7,266.4 681.2,276.2 684.6,266.4 686.3,266.4 681.7,279.1 680.5,279.1 "/>
<g class="st1">
	<defs>
		<rect id="SVGID_41_" width="948" height="533.4"/>
	</defs>
	<clipPath id="SVGID_8_" class="st2">
		<use xlink:href="#SVGID_41_"  style="overflow:visible;"/>
	</clipPath>
	<path class="st12" d="M689.6,278.6l0.1-1.5c1,0.5,2.1,0.8,3.2,0.8c1.6,0,2.8-0.6,2.8-2c0-1.2-1.1-1.8-2.4-2.5l-0.5-0.2
		c-1.5-0.7-3.3-1.6-3.3-3.6c0-2.3,2-3.5,4.1-3.5c1,0,2.2,0.2,3.1,0.6l-0.2,1.4c-0.8-0.3-1.8-0.6-2.6-0.6c-1.4,0-2.5,0.6-2.5,1.8
		c0,0.5,0.2,1,0.6,1.3c0.4,0.3,0.9,0.6,1.6,0.9l0.8,0.4c2,1,3.1,2.2,3.1,3.8c0,2.5-1.9,3.7-4.5,3.7
		C691.8,279.3,690.6,279.1,689.6,278.6"/>
</g>
<polygon class="st13" points="602.8,348.9 598.9,348.9 599.1,347.5 608.7,347.5 608.5,348.9 604.6,348.9 604.6,360.2 602.8,360.2 
	"/>
<g class="st1">
	<defs>
		<rect id="SVGID_43_" width="948" height="533.4"/>
	</defs>
	<clipPath id="SVGID_9_" class="st2">
		<use xlink:href="#SVGID_43_"  style="overflow:visible;"/>
	</clipPath>
	<path class="st14" d="M611.4,355.5v-8.1h1.8v7.9c0,2.3,0.9,3.5,3.1,3.5c2.9,0,3.2-2,3.2-3.5v-8h1.6v8c0,3.2-1.5,4.9-4.9,4.9
		C612.5,360.4,611.4,358.4,611.4,355.5"/>
</g>
<polygon class="st13" points="624.9,347.5 632.1,347.5 631.7,348.9 626.7,348.9 626.7,353.3 631.1,353.3 630.8,354.7 626.7,354.7 
	626.7,358.8 632.4,358.8 632.1,360.2 624.9,360.2 "/>
<g class="st1">
	<defs>
		<rect id="SVGID_45_" width="948" height="533.4"/>
	</defs>
	<clipPath id="SVGID_10_" class="st2">
		<use xlink:href="#SVGID_45_"  style="overflow:visible;"/>
	</clipPath>
	<path class="st15" d="M635,359.7l0.1-1.5c1,0.5,2.1,0.8,3.2,0.8c1.6,0,2.8-0.6,2.8-2c0-1.2-1.1-1.8-2.4-2.5l-0.5-0.2
		c-1.5-0.7-3.3-1.6-3.3-3.6c0-2.3,2-3.5,4.1-3.5c1,0,2.2,0.2,3.1,0.6l-0.2,1.4c-0.8-0.3-1.8-0.6-2.6-0.6c-1.4,0-2.5,0.6-2.5,1.8
		c0,0.5,0.2,1,0.6,1.3c0.4,0.3,0.9,0.6,1.6,0.9l0.8,0.4c2,1,3.1,2.2,3.1,3.8c0,2.5-1.9,3.7-4.5,3.7C637.2,360.4,636,360.2,635,359.7
		"/>
	<path class="st15" d="M649.6,358.8c1.4,0,2.7-0.2,3.6-1.1c0.9-0.9,1.2-2.1,1.2-3.9c0-1.4-0.4-2.7-1.2-3.6c-0.8-0.9-2.1-1.3-3.7-1.3
		h-1.6v9.9H649.6z M646.1,347.5h3.1c2.3,0,3.5,0.3,4.5,0.9c1.7,1.1,2.7,3.1,2.7,5.5c0,2.5-1,4.5-2.7,5.5c-1,0.6-2.4,0.9-3.8,0.9
		h-3.7V347.5z"/>
</g>
<path class="st13" d="M665.6,355.3l-1.9-5.1l-1.9,5.1H665.6z M663.2,347.6l1.2-0.3l5,12.8h-2l-1.3-3.5h-4.8l-1.3,3.5h-1.7
	L663.2,347.6z"/>
<polygon class="st13" points="673.7,355.2 669.7,347.5 671.7,347.5 674.8,353.6 677.8,347.5 679.4,347.5 675.5,355.2 675.5,360.2 
	673.7,360.2 "/>
<g class="st1">
	<defs>
		<rect id="SVGID_47_" width="948" height="533.4"/>
	</defs>
	<clipPath id="SVGID_11_" class="st2">
		<use xlink:href="#SVGID_47_"  style="overflow:visible;"/>
	</clipPath>
	<path class="st16" d="M686.6,359.4l0.3-0.4c1.2-1.5,2-2.6,3.4-4.4c1.8-2.6,1.9-3.3,1.9-4c0-1.2-0.7-2-2.3-2c-0.8,0-1.8,0.3-2.7,0.7
		l-0.1-1.2c0.9-0.5,2-0.8,3.2-0.8c2.4,0,3.8,1.4,3.8,3.2c0,1.4-0.5,2.6-2.6,5.2l-2.4,3.1h5.3l-0.4,1.5h-7.3V359.4z"/>
</g>
<polygon class="st13" points="699.6,358.7 701.7,358.7 701.7,349.2 699.7,349.6 699.7,348.2 703.5,347.4 703.5,358.7 705.9,358.7 
	705.6,360.2 699.6,360.2 "/>
<path class="st13" d="M710,358.7l1.7-0.3v1.8H710V358.7z M710,352.2l1.7-0.3v1.8H710V352.2z"/>
<g class="st1">
	<defs>
		<rect id="SVGID_49_" width="948" height="533.4"/>
	</defs>
	<clipPath id="SVGID_12_" class="st2">
		<use xlink:href="#SVGID_49_"  style="overflow:visible;"/>
	</clipPath>
	<path class="st17" d="M722.1,353.8c0-3.3-0.6-5.3-2.6-5.3c-1.9,0-2.6,2-2.6,5.3c0,3.3,0.6,5.3,2.6,5.3
		C721.4,359.1,722.1,357.1,722.1,353.8 M715,353.8c0-3.9,1.6-6.6,4.5-6.6c2.9,0,4.5,2.7,4.5,6.6s-1.6,6.6-4.5,6.6
		C716.6,360.4,715,357.8,715,353.8"/>
	<path class="st17" d="M733.8,353.8c0-3.3-0.6-5.3-2.6-5.3c-1.9,0-2.6,2-2.6,5.3c0,3.3,0.6,5.3,2.6,5.3
		C733.1,359.1,733.8,357.1,733.8,353.8 M726.7,353.8c0-3.9,1.6-6.6,4.5-6.6c2.9,0,4.5,2.7,4.5,6.6s-1.6,6.6-4.5,6.6
		C728.3,360.4,726.7,357.8,726.7,353.8"/>
	<path class="st17" d="M745.5,359.6c-1.7-1.1-2.7-3.2-2.7-5.7c0-3.4,2.2-6.6,6-6.6c1.3,0,2.4,0.3,3.2,0.7l-0.1,1.4
		c-0.9-0.4-1.9-0.6-2.9-0.6c-2.8,0-4.2,2.2-4.2,4.9c0,3.3,1.4,5.3,4.2,5.3c1.2,0,2.3-0.3,3.1-0.7l0.2,1.3c-0.8,0.4-2.1,0.8-3.5,0.8
		C747.6,360.4,746.3,360.1,745.5,359.6"/>
</g>
<polygon class="st13" points="755.5,347.5 762.7,347.5 762.3,348.9 757.3,348.9 757.3,353.3 761.7,353.3 761.4,354.7 757.3,354.7 
	757.3,358.8 763,358.8 762.7,360.2 755.5,360.2 "/>
<polygon class="st13" points="768.9,348.9 765,348.9 765.2,347.5 774.8,347.5 774.6,348.9 770.7,348.9 770.7,360.2 768.9,360.2 "/>
<g>
	<defs>
		<rect id="SVGID_51_" width="948" height="533.4"/>
	</defs>
	<clipPath id="SVGID_13_">
		<use xlink:href="#SVGID_51_"  style="overflow:visible;"/>
	</clipPath>
	<path class="st18" d="M736.1,465.6h-4.6v-18.5l-4.4,2.4v-4.4l5.8-3.4h3.2V465.6z M753.4,454c0-11-8.9-19.9-19.9-19.9
		c-11,0-19.9,8.9-19.9,19.9c0,11,8.9,19.9,19.9,19.9C744.5,473.9,753.4,465,753.4,454"/>
	<path class="st18" d="M709.2,438h-5.1v27.6h5.1V438z M701.3,446.7h-4.9v1.5c-0.8-0.6-1.6-1.1-2.5-1.4c-0.9-0.3-1.9-0.5-3-0.5
		c-1.3,0-2.5,0.3-3.6,0.8c-1.1,0.5-2.1,1.2-2.9,2.1c-0.8,0.9-1.5,1.9-2,3.1c-0.5,1.2-0.7,2.5-0.7,3.9c0,1.3,0.2,2.5,0.6,3.6
		c0.4,1.1,1,2.1,1.8,3c0.8,1,1.9,1.8,3.1,2.3c1.3,0.6,2.6,0.9,4,0.9c1,0,1.9-0.2,2.8-0.4c0.9-0.3,1.7-0.8,2.5-1.5v1.5h4.9V446.7z
		 M696.3,459c-0.5,0.7-1.1,1.3-1.9,1.7c-0.8,0.4-1.7,0.6-2.6,0.6c-0.7,0-1.4-0.1-2-0.4c-0.6-0.3-1.1-0.6-1.6-1.1
		c-0.5-0.5-0.8-1-1.1-1.6c-0.2-0.6-0.4-1.3-0.4-2.1c0-0.7,0.1-1.3,0.4-1.9c0.2-0.6,0.6-1.2,1-1.7c0.4-0.5,0.9-0.9,1.5-1.1
		c0.6-0.3,1.3-0.4,2-0.4c1,0,1.9,0.2,2.7,0.6c0.8,0.4,1.5,1,2,1.7V459z M666.5,465.6v-12.2c0.2-0.2,0.4-0.5,0.7-0.8
		c0.3-0.3,0.6-0.5,1-0.8c0.4-0.2,0.8-0.4,1.3-0.6c0.5-0.2,1-0.2,1.5-0.2c1.2,0,2.1,0.3,2.8,1c0.4,0.4,0.6,0.8,0.8,1.3
		s0.3,1.3,0.3,2.2v10h5.1V456c0-1.6-0.2-3-0.5-4c-0.3-1-0.8-1.9-1.4-2.6c-0.8-0.9-1.7-1.7-2.9-2.2c-1.1-0.5-2.4-0.8-3.7-0.8
		c-1.1,0-2,0.2-2.9,0.5c-0.9,0.3-1.7,0.8-2.4,1.4v-1.5h-4.9v18.9H666.5z M658.7,446.7h-4.9v1.5c-0.8-0.6-1.6-1.1-2.5-1.4
		c-0.9-0.3-1.9-0.5-3-0.5c-1.3,0-2.5,0.3-3.6,0.8c-1.1,0.5-2.1,1.2-2.9,2.1c-0.8,0.9-1.5,1.9-2,3.1c-0.5,1.2-0.7,2.5-0.7,3.9
		c0,1.3,0.2,2.5,0.6,3.6c0.4,1.1,1,2.1,1.8,3c0.8,1,1.9,1.8,3.1,2.3c1.3,0.6,2.6,0.9,4,0.9c1,0,1.9-0.2,2.8-0.4
		c0.9-0.3,1.7-0.8,2.5-1.5v1.5h4.9V446.7z M653.6,459c-0.5,0.7-1.1,1.3-1.9,1.7c-0.8,0.4-1.7,0.6-2.6,0.6c-0.7,0-1.4-0.1-2-0.4
		c-0.6-0.3-1.1-0.6-1.6-1.1c-0.5-0.5-0.8-1-1-1.6c-0.2-0.6-0.4-1.3-0.4-2.1c0-0.7,0.1-1.3,0.3-1.9c0.2-0.6,0.6-1.2,1-1.7
		c0.4-0.5,0.9-0.9,1.5-1.1c0.6-0.3,1.3-0.4,2-0.4c1,0,1.9,0.2,2.7,0.6c0.8,0.4,1.5,1,2,1.7V459z M635.1,458.8
		c-0.4,0.6-1,1.2-1.8,1.7c-0.8,0.5-1.7,0.8-2.7,0.8c-0.8,0-1.5-0.1-2.1-0.4c-0.6-0.3-1.2-0.6-1.6-1.1c-0.5-0.5-0.8-1-1.1-1.6
		c-0.3-0.6-0.4-1.3-0.4-2.1c0-0.7,0.1-1.4,0.4-2c0.3-0.6,0.6-1.2,1.1-1.6c0.5-0.5,1-0.8,1.6-1.1c0.6-0.3,1.3-0.4,2-0.4
		c0.9,0,1.7,0.2,2.5,0.6c0.7,0.4,1.4,1,1.9,1.6l3.6-3.1c-0.9-1.1-2-2.1-3.4-2.7c-1.4-0.7-2.9-1-4.5-1c-1.5,0-2.8,0.3-4,0.8
		c-1.2,0.5-2.3,1.2-3.2,2.1c-0.9,0.9-1.6,1.9-2.1,3.1c-0.5,1.2-0.8,2.5-0.8,3.8c0,1.4,0.3,2.7,0.8,3.8c0.5,1.2,1.2,2.2,2.1,3.1
		c0.9,0.9,2,1.6,3.2,2.1c1.2,0.5,2.6,0.8,4,0.8c1.8,0,3.4-0.3,4.8-1c1.4-0.7,2.7-1.7,3.8-3.2L635.1,458.8z"/>
</g>
<g>
</g>
<g>
</g>
<g>
</g>
<g>
</g>
<g>
</g>
<g>
</g>
</svg>
