<?xml version="1.0" encoding="utf-8"?>
<!-- Generator: Adobe Illustrator 22.1.0, SVG Export Plug-In . SVG Version: 6.00 Build 0)  -->
<svg version="1.1" id="Layer_1" xmlns="http://www.w3.org/2000/svg" xmlns:xlink="http://www.w3.org/1999/xlink" x="0px" y="0px"
	 viewBox="0 0 124.6 119.7" style="enable-background:new 0 0 124.6 119.7;" xml:space="preserve">
<style type="text/css">
	.st0{clip-path:url(#SVGID_2_);fill:#FFFFFF;}
</style>
<g>
	<defs>
		<rect id="SVGID_1_" x="0" width="124.6" height="119.7"/>
	</defs>
	<clipPath id="SVGID_2_">
		<use xlink:href="#SVGID_1_"  style="overflow:visible;"/>
	</clipPath>
	<path class="st0" d="M61.7,65.6c8.6,0,16.3,3.5,21.8,9.2l0.9-0.9c-5.8-5.9-13.8-9.6-22.7-9.6S44.7,68.1,39,74l0.9,0.9
		C45.4,69.2,53.1,65.6,61.7,65.6 M61.7,78.7c5.2,0,9.9,2.3,13.2,6l0.9-0.8c-3.4-3.9-8.5-6.4-14.1-6.4c-5.6,0-10.7,2.5-14.1,6.4
		l0.9,0.8C51.7,81,56.4,78.7,61.7,78.7 M78.8,73.2c-0.4-0.3-0.6-0.2-0.9,0L71,77.6l1.5,0.8l5-3.2l-0.8,2.7l-0.6-0.5l-1.3,0.9
		l1.5,1.2L75.8,81l1.3,1.2l2.3-8c0.1-0.3,0.1-0.6-0.2-0.9L78.8,73.2z M48.5,78.6c0.4-0.3,0.7-0.8,0.7-1.3c0.1-0.6-0.1-1-0.6-1.6
		l-2.8-3.4l1.2-1l3,3.7c0.6,0.8,0.9,1.6,0.8,2.4c-0.1,0.9-0.6,1.7-1.4,2.4c-0.8,0.7-1.7,1-2.6,0.9c-0.8-0.1-1.6-0.5-2.2-1.3l-3-3.7
		l1.2-1l2.8,3.4c0.5,0.7,0.9,0.9,1.5,1C47.6,79.2,48.1,79,48.5,78.6 M55.1,69.8l0.4,1.8l3.6-0.7l0.3,1.4l-3.6,0.7l0.2,0.7
		c0.2,0.8,0.5,1,1.2,0.8l2.9-0.6l0.3,1.5l-3,0.6c-1.4,0.3-2.6-0.1-3-1.8l-1-5c-0.1-0.4,0.1-0.6,0.5-0.7l4.9-1l0.3,1.5L55.1,69.8z
		 M65.7,76l-1-0.2c-0.3-0.1-0.5-0.4-0.4-0.7l1.3-4.9c0.4-1.7,1.7-2,3.1-1.6l2.9,0.8l-0.4,1.4l-2.8-0.7c-0.7-0.2-1.1-0.1-1.3,0.8
		l-0.2,0.7l3.5,0.9l-0.4,1.4l-3.5-0.9L65.7,76z M95.4,117.8L95.4,117.8h0.4c0.3,0,0.5,0,0.5-0.3c0-0.3-0.2-0.3-0.4-0.3h-0.4V117.8z
		 M95.4,118.1L95.4,118.1v0.9H95v-2h0.8c0.5,0,0.7,0.2,0.7,0.6c0,0.4-0.2,0.5-0.5,0.6l0.6,0.9h-0.3l-0.5-0.9H95.4z M94.3,117.9
		L94.3,117.9c0,0.9,0.6,1.5,1.4,1.5c0.8,0,1.4-0.6,1.4-1.5c0-0.8-0.6-1.5-1.4-1.5C94.9,116.5,94.3,117.1,94.3,117.9 M95.7,119.7
		L95.7,119.7c-1,0-1.8-0.7-1.8-1.8c0-1,0.8-1.8,1.8-1.8c1,0,1.8,0.7,1.8,1.8C97.5,119,96.7,119.7,95.7,119.7 M86.1,107L86.1,107v7.7
		c0,0.4-0.2,0.6-0.7,0.6v0.4h7.8c0-0.8,0-1.6,0.2-2.8h-0.5c-0.2,1.2-0.5,1.5-1.3,1.5h-3.3v-3.1h2c0.7,0,0.8,0.2,0.9,0.8h0.4
		c0-0.4-0.1-1-0.1-1.4c0-0.4,0-1,0.1-1.4h-0.4c-0.1,0.5-0.2,0.8-0.9,0.8h-2v-2.8h3.2c0.8,0,1,0.3,1.2,1.1H93
		c-0.1-0.8-0.1-1.5-0.1-2.3h-7.5v0.4C86,106.4,86.1,106.6,86.1,107 M74.2,107L74.2,107v5.5c0,2.5,1.4,3.4,4.1,3.4
		c2.7,0,4.1-0.9,4.1-3.6V107c0-0.4,0.2-0.6,0.7-0.6V106c-0.5,0-1.1,0.1-1.7,0.1c-0.8,0-1.4,0-2-0.1v0.4c0.6,0,0.8,0.1,0.8,0.7v5.5
		c0,1.6-0.7,2-1.9,2s-1.9-0.3-1.9-2v-5.5c0-0.6,0.2-0.7,0.8-0.7V106c-0.6,0-1.2,0.1-2,0.1c-0.6,0-1.2,0-1.7-0.1v0.4
		C74,106.4,74.2,106.6,74.2,107 M68.3,112.3L68.3,112.3v1.1c0,0.7-0.6,1.2-1.6,1.2c-1.7,0-2.7-2.1-2.7-3.9c0-1.9,1-3.5,3.1-3.5
		c1.2,0,2.5,0.7,2.7,2h0.4c-0.1-1-0.1-1.9-0.1-2.6c-0.8-0.5-1.9-0.7-2.9-0.7c-3.2,0-5.3,1.9-5.3,5.1c0,2.7,1.8,5,4.5,5
		c1,0,2-0.3,2.9-1.2l0.3,1h0.9v-3.3c0-0.7,0.3-0.8,0.8-0.8v-0.5c-0.7,0-1.3,0.1-2,0.1c-0.6,0-1.2,0-1.8-0.1v0.5
		C68.1,111.6,68.3,111.7,68.3,112.3 M56.4,111.5L56.4,111.5h-2.1c0.4-1,0.9-2.2,1.2-3.4h0C55.8,109.6,56.1,110.5,56.4,111.5
		 M50.7,115.3L50.7,115.3v0.4c0.5,0,1-0.1,1.5-0.1c0.5,0,1,0,1.5,0.1v-0.4c-0.5,0-0.7-0.2-0.7-0.5c0-0.1,0-0.3,0.1-0.5l0.7-1.7h2.9
		l0.5,1.4c0.1,0.2,0.1,0.5,0.1,0.7c0,0.3-0.2,0.5-0.7,0.6v0.4c0.6,0,1.3-0.1,1.9-0.1c0.6,0,1.3,0,1.9,0.1v-0.4
		c-0.4-0.1-0.7-0.3-0.9-1l-2.7-8.4c-0.5,0-0.9,0.1-1.4,0.1s-0.9,0-1.4-0.1v0.4c0.4,0,0.6,0.2,0.6,0.4c0,0.1-0.1,0.4-0.2,0.6
		l-2.9,7.3C51.4,115,51.2,115.3,50.7,115.3 M41.7,107L41.7,107v7.7c0,0.4-0.2,0.6-0.7,0.6v0.4h7.8c0-0.8,0-1.6,0.2-2.8h-0.5
		c-0.3,1.2-0.5,1.5-1.3,1.5h-3.3v-3.1h2c0.7,0,0.8,0.2,0.9,0.8h0.4c0-0.4-0.1-1-0.1-1.4c0-0.4,0-1,0.1-1.4h-0.4
		c-0.1,0.5-0.2,0.8-0.9,0.8h-2v-2.9H47c0.8,0,1,0.3,1.2,1.1h0.4c-0.1-0.8-0.1-1.5-0.1-2.3H41v0.4C41.5,106.4,41.7,106.6,41.7,107
		 M32.3,107L32.3,107v7.7c0,0.4-0.2,0.6-0.7,0.6v0.4h7.3c0-1,0.2-1.9,0.4-2.9h-0.5c-0.3,1.1-0.7,1.6-1.6,1.6h-2.7v-7.2
		c0-0.4,0.1-0.8,0.9-0.8V106c-0.4,0-1.3,0.1-2,0.1c-0.5,0-1.1,0-1.8-0.1v0.4C32.1,106.4,32.3,106.6,32.3,107 M11.6,99.4L11.6,99.4
		l0.2-2.4c-1.1,1-2.8,1.6-4,1.6C5,98.6,3,95.9,3,93.5c0-3.2,1.9-5.1,4.3-5.1c1.8,0,3,0.9,3.3,2.7h0.6c-0.1-1.4-0.2-2.8-0.2-4.2
		c-0.5-0.2-1.7-0.5-3.5-0.5c-4.9,0-7.5,3.6-7.5,7.3c0,3.6,2.6,7.2,7.1,7.2C8.4,100.8,10.2,100.4,11.6,99.4 M45.3,90.6L45.3,90.6
		l-0.4,8c0,0.8-0.3,1-1.1,1v0.5c0.6-0.1,1.3-0.1,2-0.1c0.7,0,1.4,0.1,2.2,0.1v-0.5c-1.1-0.1-1.2-0.3-1.2-1.3c0-0.5,0-1,0.1-2
		l0.2-5.6h0l3.7,9.5h1.6l3.2-9.4h0l0.4,5.7c0.1,0.6,0.1,1.5,0.1,2c0,0.9-0.3,1.1-1.2,1.2v0.5c0.8-0.1,1.6-0.1,2.4-0.1
		c0.8,0,1.7,0.1,2.5,0.1v-0.5c-0.4-0.1-0.9-0.1-1-0.6l-0.6-8.2c-0.1-0.6-0.1-1.5-0.1-2c0-0.5,0.1-0.7,0.8-0.8v-0.5
		c-0.7,0.1-1.3,0.1-2,0.1c-0.7,0-1.3-0.1-2-0.1l-3,8.9l-3.3-8.9c-0.7,0.1-1.4,0.1-2.1,0.1c-0.7,0-1.4-0.1-2-0.1V88
		c0.7,0.1,0.9,0.2,0.9,0.8C45.4,89.5,45.4,90,45.3,90.6 M28.9,100.1L28.9,100.1v-0.5c0.6-0.1,0.8-0.4,1-0.9l3.8-9.5
		c0.1-0.3,0.2-0.6,0.2-0.7c0-0.2-0.2-0.5-0.7-0.5v-0.5c0.6,0.1,1.2,0.1,1.8,0.1c0.6,0,1.2-0.1,1.8-0.1l3.5,10.9
		c0.3,0.8,0.6,1.1,1.1,1.2v0.5c-0.8-0.1-1.6-0.1-2.4-0.1c-0.8,0-1.6,0.1-2.5,0.1v-0.5c0.7-0.1,1-0.3,1-0.7c0-0.3-0.1-0.7-0.2-1
		l-0.6-1.9H33l-0.8,2.3C32.1,98.6,32,98.8,32,99c0,0.3,0.3,0.6,0.9,0.6v0.5c-0.7-0.1-1.3-0.1-2-0.1C30.3,100,29.6,100,28.9,100.1
		 M33.6,94.6L33.6,94.6h2.7c-0.4-1.2-0.7-2.5-1.1-4.4h0C34.7,91.7,34.1,93.3,33.6,94.6 M15.3,88.8L15.3,88.8v10
		c0,0.5-0.2,0.8-0.9,0.8v0.5c0.8-0.1,1.6-0.1,2.3-0.1c0.7,0,1.5,0.1,2.3,0.1v-0.5c-0.7,0-0.9-0.3-0.9-0.8v-4.4h4.6v4.4
		c0,0.5-0.2,0.8-0.9,0.8v0.5c0.8-0.1,1.6-0.1,2.3-0.1c0.7,0,1.5,0.1,2.3,0.1v-0.5c-0.6,0-0.9-0.3-0.9-0.8v-10c0-0.5,0.2-0.8,0.9-0.8
		v-0.5c-0.8,0.1-1.6,0.1-2.3,0.1c-0.7,0-1.5-0.1-2.3-0.1V88c0.7,0,0.9,0.3,0.9,0.8v3.8h-4.6v-3.8c0-0.5,0.2-0.8,0.9-0.8v-0.5
		c-0.8,0.1-1.6,0.1-2.3,0.1c-0.7,0-1.5-0.1-2.3-0.1V88C15.1,88,15.3,88.2,15.3,88.8 M114.8,95.7L114.8,95.7h-0.5
		c0.1,1.1,0.2,2.5,0.2,4.1c1.3,0.5,2.8,0.7,4.3,0.7c3.2,0,5.8-1.4,5.8-4c0-2.6-1.9-3.3-3.8-3.9l-2.1-0.6c-0.8-0.2-1.8-0.6-1.8-1.6
		c0-1.4,1.7-1.7,2.6-1.7c1.8,0,3.2,0.8,3.7,2.7h0.5c-0.1-1-0.2-2.2-0.2-3.6c-1.1-0.4-2.4-0.6-3.7-0.6c-2.9,0-5.9,0.9-5.9,4
		c0,2.3,2,3.2,4,3.8l1.4,0.4c0.9,0.3,2.1,0.6,2.1,1.8c0,1.5-1.7,1.8-2.8,1.8C116.6,98.9,115.2,97.9,114.8,95.7 M99.9,88.8L99.9,88.8
		v10c0,0.5-0.2,0.8-0.9,0.8v0.5c0.6-0.1,1.2-0.1,1.9-0.1c0.6,0,1.2,0.1,1.8,0.1v-0.5c-0.5,0-1.1-0.1-1.1-1.1v-8.3h0l6.4,9.9h2V88.8
		c0-0.5,0.2-0.8,0.9-0.8v-0.5c-0.6,0.1-1.2,0.1-1.9,0.1c-0.6,0-1.2-0.1-1.8-0.1V88c0.5,0,1.1,0.1,1.1,1.1v7h0l-5.3-8.6
		c-0.6,0.1-1.2,0.1-1.7,0.1c-0.7,0-1.5-0.1-2.3-0.1V88C99.7,88,99.9,88.2,99.9,88.8 M76.9,88.8L76.9,88.8v10c0,0.5-0.2,0.8-0.9,0.8
		v0.5c0.8-0.1,1.6-0.1,2.3-0.1c0.7,0,1.5,0.1,2.3,0.1v-0.5c-0.7,0-0.9-0.3-0.9-0.8v-10c0-0.5,0.2-0.8,0.9-0.8v-0.5
		c-0.8,0.1-1.6,0.1-2.3,0.1c-0.7,0-1.5-0.1-2.3-0.1V88C76.6,88,76.9,88.2,76.9,88.8 M66.4,98.5L66.4,98.5v-9.1l1.2-0.1
		c1.7,0,2.8,0.6,2.8,2.3c0,1.6-0.8,2.7-2.8,2.7c-0.3,0-0.5-0.1-0.7-0.1c-0.2,0-0.3,0-0.3,0.2c0,0.4,1.4,0.9,2.3,0.9
		c2.5,0,4.3-1.5,4.3-3.8c0-2.2-1.3-3.9-4.8-3.9h-5.7v0.5c0.7,0,0.9,0.3,0.9,0.8v9.4c0,0.9-0.1,1.2-0.9,1.4v0.5
		c0.8-0.1,1.6-0.1,2.3-0.1s1.5,0.1,2.7,0.1v-0.5C66.5,99.4,66.4,99.1,66.4,98.5 M89.5,89.1L89.5,89.1c2.9,0,3.7,3.3,3.7,5.5
		c0,2.1-1.1,3.8-3.1,3.8c-2.7,0-3.7-3.3-3.7-5.5C86.4,91.4,87.1,89.1,89.5,89.1 M89.7,100.3L89.7,100.3c3.4,0,6.4-2.4,6.4-6.5
		c0-3.4-2.4-6.5-6.3-6.5c-3.5,0-6.2,2.6-6.2,6.3C83.6,97.1,85.9,100.3,89.7,100.3 M74.9,51.9c0.6-2.7,0.1-5.3,0.1-5.3
		c-1.8,2.5-3.5,4.4-5.1,5.9c-4.3,0.2-7.6-0.3-7.6-0.3s1.9,1.9,4.1,3c-2.9,1.8-4.9,2-4.9,2c12.7,0.3,20.4-8,20.4-8
		C79.9,50.5,77.4,51.4,74.9,51.9 M62.4,52.2c0,0-2.6-1-6.3-3.1c0.1-2.2,0.5-5.1,1.2-8.7c0,0-3,2.9-6.8,5.2c-2.2-1.5-4.5-3.3-6.8-5.4
		c0,0,1.1,3.4,3.2,7.2c-2,0.8-4.1,1.1-6,0.6c0,0,2.2,2.8,9.2,4c1.9,2.3,4.3,4.2,7,4.8c0,0-0.8-0.9-1-4.3
		C58,52.5,60.1,52.4,62.4,52.2 M47.1,26.9c-3.1,0.1-5.5,0.4-7.4,0.7c-0.5-3.3-0.6-5.7-0.6-5.7c-1.5,2.3-2.5,4.6-3.1,6.7
		c-2.2,0.8-2.7,1.6-2.7,1.6c0.3,1.1,1,2.3,1.9,3.3c-0.3,5,1.3,8.2,1.3,8.2c0.4-1.7,1.1-3.4,2-5c2.6,2.1,5.2,3.5,5.2,3.5
		c-1.2-2.2-2.1-4.7-2.8-7.1C43.9,29.4,47.1,26.9,47.1,26.9 M40,15c1.5-1.4,3.3-3,5.4-4.5c0,0-2,0-4.1,0.5c1.4-3.4,2.9-5.3,2.9-5.3
		S35.3,12,33.6,23.4c0,0,0.7-2.1,3.3-5.2c1,2.3,2.2,3.7,2.2,3.7C39.1,19.3,39.5,17,40,15 M69.6,5.6c-2.4-1.2-4.6-2-6.7-2.6
		C65.6,0.7,68,0.2,68,0.2C63.8,0,60.1,0.8,57,2c-4.6-0.4-7.6,0.4-7.6,0.4c0.7,0.5,1.3,1.4,1.9,2.6c-3.9,2.7-5.9,5.4-5.9,5.4
		c2.3-1.2,4.8-2.1,7.3-2.7c0.3,0.5,0.6,1,0.9,1.5c1.6,2.5,3.4,4.3,3.4,4.3c0.6-3,1.7-5.4,3-7.2C65.5,5.5,69.6,5.6,69.6,5.6
		 M89.3,18.8c-1.5-3.3-3.6-5.8-5.8-7.6c-2-4.1-4.2-6-4.2-6c0.2,0.9,0,2-0.3,3.1c-4.9-2.4-9.3-2.7-9.3-2.7c2.8,1.9,5.3,4.1,7.5,6.5
		c-2,3.2-4.6,6-4.6,6c3.5-0.8,6.2-1.1,8.5-1.2c3.4,4.7,5.3,8.7,5.3,8.7c0.1-3.2-0.2-6-0.8-8.4C88.3,17.8,89.3,18.8,89.3,18.8
		 M90.8,30.6c-0.8,1.3-2.1,2.3-3.7,2.9c-0.2-4.3-0.9-8-0.9-8c-1.3,3.5-2.7,6.6-4,9.3c-4.6,0.6-9.1-0.1-9.1-0.1
		c2.5,2.9,4.4,4.7,5.9,5.9c-2.3,3.9-4,6-4,6c3.2-0.7,5.8-2,7.9-3.4c0.8,0.6,1.6,1.2,2.3,2.3c0,0,1.3-1.9,1.8-6.2
		C90.3,35,90.8,30.6,90.8,30.6 M62.3,32.2L62.3,32.2c-1.7,2.6-3.4,5.4-5,8.2c0,0-1.2-4.2-1.7-10.2c-2.8-0.9-5.7-2-8.5-3.3
		c0,0,3.2-1.6,8.4-3.6c0.1-3.1,0.6-6.5,1.5-9.8c0,0,1.7,3.1,4.8,7.6c3.3-1.1,6.9-2.1,10.7-3c0,0-2.9,3.5-6.5,8.7
		c2.1,2.6,4.5,5.4,7.1,8C73.2,34.8,68.5,33.9,62.3,32.2"/>
</g>
<g>
</g>
<g>
</g>
<g>
</g>
<g>
</g>
<g>
</g>
<g>
</g>
</svg>
